<?xml version="1.0" encoding="UTF-8"?>
<svg id="FINAL_INV" xmlns="http://www.w3.org/2000/svg" viewBox="0 0 3200 3200">
  <defs>
    <style>
      .cls-1 {
        fill: #fff;
      }

      .cls-2 {
        fill: none;
        stroke: #fff;
        stroke-miterlimit: 10;
        stroke-width: 50px;
      }
    </style>
  </defs>
  <g>
    <path class="cls-2" d="M2333.01,2397.65l-16.7-305.42s-77.76-182.99-560.09-13.52c-98.69,34.68-238.39,45.5-316.29,8.95-160.94-75.51,193.97-295.71-548.4-202.21l-19.97,359.66h-277.09l20.22-397.21c.87-17.15-12.79-31.53-29.96-31.53h-124.1c-15.98,0-29.15,12.52-29.96,28.47l-28.15,552.92c-.87,17.15,12.79,31.53,29.96,31.53h440.61s1429.96,0,1429.96,0c17.21,0,30.9-14.45,29.96-31.64Z"/>
    <path class="cls-2" d="M2041.33,1878.46c35.96-35.96,35.96-94.27,0-130.23-35.96-35.96-94.27-35.96-130.23,0-35.96,35.96-58.58,105.18-22.61,141.15,35.96,35.96,116.88,25.05,152.85-10.91Z"/>
  </g>
  <path class="cls-1" d="M891.53,1885.46c742.37-93.5,387.46,126.7,548.4,202.21,77.9,36.55,217.6,25.73,316.29-8.95,464.92-163.36,553.95,.76,559.77,12.82l-25.39-457.25,653.59-814.81c15.75-19.64,1.77-48.77-23.4-48.77H279.21c-25.16,0-39.15,29.12-23.41,48.76l649.88,811.24-14.14,254.76Zm722.46-425.41c-7.81,7.81-20.48,7.8-28.28-.01l-344.29-344.56c-12.59-12.6-3.66-34.14,14.16-34.14l688.85,.28c17.82,0,26.73,21.55,14.13,34.15l-344.56,344.29Zm427.34,418.41c-35.96,35.96-116.88,46.88-152.85,10.91-35.96-35.96-13.35-105.18,22.61-141.15,35.96-35.96,94.27-35.96,130.23,0,35.96,35.96,35.96,94.27,0,130.23Z"/>
</svg>